<svg version="1.1" id="Layer_1" xmlns="http://www.w3.org/2000/svg" xmlns:xlink="http://www.w3.org/1999/xlink" x="0px" y="0px"
	 width="100%" viewBox="0 0 855 180" enable-background="new 0 0 855 180" xml:space="preserve">
<path fill="#010101" opacity="1.000000" stroke="none" 
	d="
M630.000000,181.000000 
	C420.050568,181.000000 210.601120,181.000000 1.075841,181.000000 
	C1.075841,121.065125 1.075841,61.130123 1.075841,1.097561 
	C285.999969,1.097561 571.000000,1.097561 855.972534,1.097561 
	C855.972534,61.065613 855.972534,121.032814 855.972534,181.000000 
	C780.796692,181.000000 705.648315,181.000000 630.000000,181.000000 
M119.296181,59.962482 
	C119.209778,60.303204 119.123375,60.643925 118.670586,61.554131 
	C118.107925,62.702984 117.545265,63.851833 116.598465,65.581833 
	C114.352165,70.370911 112.105865,75.159996 109.261047,80.259735 
	C108.840271,81.505722 108.419502,82.751709 107.442223,83.874130 
	C106.977646,83.563332 106.513069,83.252541 106.082169,82.984657 
	C106.082169,82.984657 106.097298,82.932243 106.031082,82.071770 
	C105.714706,75.289833 105.467827,68.503395 105.028069,61.729465 
	C104.930679,60.229221 104.151817,58.773216 103.686745,57.296841 
	C102.280823,57.989212 100.585045,58.382454 99.513908,59.420338 
	C89.061340,69.548355 83.725792,82.128189 81.723907,97.049217 
	C80.271713,113.780960 83.873940,129.069305 94.862167,142.882812 
	C95.560402,143.603943 96.258636,144.325073 97.004120,145.010040 
	C97.004120,145.010040 96.949852,145.030762 97.005234,145.598343 
	C97.321449,145.769989 97.637665,145.941650 98.207939,146.490479 
	C98.402390,146.732864 98.643791,146.911972 99.046707,147.639465 
	C99.696411,148.102890 100.346115,148.566330 101.268982,149.358200 
	C101.268982,149.358200 101.692421,149.414612 101.734207,149.284042 
	C101.734207,149.284042 101.613548,149.349121 101.768570,149.980850 
	C102.815689,150.699829 103.862816,151.418823 104.978455,152.044220 
	C104.978455,152.044220 104.874489,152.095642 105.156631,152.711166 
	C112.043427,157.754410 119.329651,161.912247 128.623047,163.441467 
	C136.737915,163.891861 144.852768,164.342255 153.698883,164.921051 
	C154.151398,164.748810 154.603928,164.576569 155.730194,164.427734 
	C157.473831,163.907471 159.217453,163.387192 161.716858,162.950180 
	C166.172913,160.654190 170.628967,158.358200 175.013245,156.018814 
	C175.013245,156.018814 175.040314,156.098175 175.710312,156.037003 
	C176.787338,155.351593 177.864365,154.666168 178.996124,154.002884 
	C178.996124,154.002884 178.994125,153.943848 179.527969,153.863159 
	C179.757019,153.598083 179.986053,153.332993 180.862549,152.934250 
	C183.410614,150.465378 185.958679,147.996490 188.856689,145.317993 
	C188.856689,145.317993 188.993195,144.932114 189.519089,144.742188 
	C189.815964,144.279175 190.112854,143.816177 190.974319,143.003006 
	C194.030060,136.284302 198.328552,129.838943 199.879074,122.789177 
	C202.968155,108.744049 201.295334,95.070793 191.743790,83.312088 
	C189.430206,80.463875 187.750931,80.479660 185.767502,83.767036 
	C181.592285,90.687119 178.553986,91.603256 171.303070,88.063828 
	C170.956573,87.631393 170.610092,87.198959 170.205276,85.860672 
	C170.258560,81.457062 170.140701,77.042984 170.409424,72.652557 
	C170.729156,67.429077 171.380905,62.225922 172.108383,56.145351 
	C171.910721,54.094276 171.713043,52.043201 171.676727,49.462006 
	C171.484940,48.961060 171.293152,48.460117 171.217941,47.143078 
	C167.480377,23.297386 148.433456,13.898434 128.663284,12.908045 
	C127.568329,12.853193 126.077843,13.609461 125.428848,14.478889 
	C125.058479,14.975055 125.732193,16.740862 126.426422,17.463879 
	C131.977020,23.244646 133.893295,30.219341 133.217499,38.754307 
	C131.778122,42.468048 130.338745,46.181786 128.412628,50.059662 
	C128.245956,50.348362 128.079300,50.637062 127.411797,51.077076 
	C127.270821,51.383781 127.129845,51.690487 126.437897,52.213165 
	C125.960754,52.818745 125.483604,53.424324 124.519928,54.159477 
	C124.364044,54.442997 124.208160,54.726521 123.547562,55.171131 
	C123.371719,55.465416 123.195885,55.759705 122.455368,56.245228 
	C122.173752,56.747597 121.892143,57.249962 121.755829,57.807858 
	C121.755829,57.807858 121.727715,57.654869 121.190872,57.822845 
	C121.025841,58.146061 120.860809,58.469273 120.817909,58.825706 
	C120.817909,58.825706 120.781448,58.704506 120.235405,58.862331 
	C120.068520,59.188534 119.901634,59.514736 119.849571,59.863136 
	C119.849571,59.863136 119.815651,59.751217 119.296181,59.962482 
M491.732025,135.864487 
	C500.912201,137.411209 509.947571,137.027786 518.874207,134.158798 
	C528.976013,130.912125 528.999512,130.987228 528.998291,120.515549 
	C528.997375,112.769211 528.998169,105.022881 528.998169,97.431580 
	C520.965271,97.431580 513.717529,97.431580 506.596497,97.431580 
	C506.596497,100.340927 506.596497,102.894859 506.596497,105.960541 
	C511.162384,105.960541 515.341370,105.960541 520.061584,105.960541 
	C509.413818,115.674622 493.727112,115.523674 483.214233,106.142189 
	C472.672791,96.735184 470.955872,81.267921 479.199860,69.977318 
	C488.926483,56.656178 504.329742,55.163109 522.468506,65.983551 
	C524.189880,64.349770 525.970520,62.659683 527.705872,61.012615 
	C518.277100,49.259525 498.669922,46.434734 484.399506,54.381908 
	C468.711243,63.118675 461.515198,81.016548 467.294708,97.485176 
	C470.206390,105.782005 475.584900,112.249146 483.217834,116.702934 
	C495.344666,123.778854 507.794159,123.447594 520.390320,117.510307 
	C520.707275,124.506310 520.728333,124.577728 515.221313,126.200409 
	C512.838684,126.902481 510.371155,127.458427 507.904388,127.709846 
	C489.955627,129.539108 475.249634,123.516632 465.287384,108.345650 
	C456.075165,94.316856 455.665314,79.324211 464.502045,64.948914 
	C473.956482,49.568699 488.260742,42.709385 506.297821,43.798141 
	C516.665588,44.423958 525.395020,48.981621 533.415161,55.751225 
	C535.386169,53.679405 537.148376,51.827099 539.015625,49.864361 
	C527.132446,38.975220 513.810730,34.262440 498.336639,35.094955 
	C468.203339,36.716148 444.903992,65.580788 450.826233,95.098701 
	C455.231903,117.057831 469.588440,130.000671 491.732025,135.864487 
M677.398499,102.060081 
	C683.625488,106.849937 689.852417,111.639801 696.631104,116.854034 
	C696.631104,88.964699 696.631104,62.229271 696.631104,35.319550 
	C693.804504,35.319550 691.237976,35.319550 688.015198,35.319550 
	C688.015198,56.707184 688.015198,77.846268 688.015198,99.311386 
	C682.846252,96.650818 680.918762,93.385361 681.072388,87.910263 
	C681.516113,72.097725 681.229553,56.264690 681.229675,40.439705 
	C681.229675,38.696953 681.229675,36.954201 681.229675,35.354904 
	C678.033936,35.354904 675.609497,35.354904 672.767944,35.354904 
	C672.767944,52.697098 672.767944,69.750519 672.767944,87.963287 
	C649.253296,69.865570 626.562683,52.402046 603.326294,34.518452 
	C603.326294,69.065727 603.326294,102.734566 603.326294,136.560181 
	C606.058350,136.560181 608.483215,136.560181 611.579590,136.560181 
	C611.579590,108.363113 611.579590,80.376793 611.579590,51.267754 
	C633.985840,68.541840 655.423096,85.068886 677.398499,102.060081 
M347.500000,109.983589 
	C356.449982,109.983589 365.399994,109.983589 375.229370,109.983589 
	C361.375397,84.783142 347.885345,60.244678 333.899445,34.804234 
	C315.032959,69.122169 296.670563,102.523148 278.170532,136.174500 
	C284.696014,137.801880 288.299988,136.454330 290.694977,130.891953 
	C293.315216,124.806297 297.129974,119.244820 300.199127,113.337982 
	C301.513062,110.809242 303.109680,109.874611 306.013947,109.910294 
	C319.507568,110.076073 333.004333,109.983620 347.500000,109.983589 
M633.303589,77.232430 
	C628.603149,73.679657 623.902649,70.126884 618.796753,66.267639 
	C618.796753,90.238899 618.796753,113.400047 618.796753,136.561768 
	C621.661377,136.561768 624.104614,136.561768 627.237671,136.561768 
	C627.237671,118.874756 627.237671,101.406433 627.237671,83.092430 
	C650.778442,101.254745 673.466370,118.759087 696.205627,136.303009 
	C698.440979,129.157578 695.867676,125.057381 690.539917,121.100609 
	C671.434448,106.911415 652.713806,92.203987 633.303589,77.232430 
M368.325745,132.136108 
	C367.231964,130.011978 366.138214,127.887833 364.945190,125.570900 
	C373.749969,124.736679 373.749969,124.736671 377.286743,131.109879 
	C380.832489,137.499268 382.294891,138.068054 390.095459,135.887955 
	C386.841797,130.226028 383.738739,124.556442 380.311768,119.089897 
	C379.624878,117.994209 377.708344,117.087311 376.353149,117.079636 
	C354.548248,116.956032 332.742401,116.973351 310.937042,117.044113 
	C309.755249,117.047958 307.984924,117.446404 307.490082,118.265915 
	C303.938049,124.148521 300.645294,130.187683 297.282104,136.156082 
	C304.391235,138.461243 308.516022,135.933914 310.597229,129.790588 
	C311.959229,125.770172 314.748169,125.010620 318.679199,125.115486 
	C328.826202,125.386169 338.990631,125.446968 349.135162,125.149200 
	C353.326721,125.026161 356.199524,125.932564 357.576294,130.115372 
	C359.574097,136.185089 363.686218,138.290680 370.199036,136.270752 
	C369.715240,135.140320 369.223114,133.990387 368.325745,132.136108 
M785.078796,59.500027 
	C785.078796,51.418732 785.078796,43.337440 785.078796,35.396408 
	C781.845886,35.396408 779.294556,35.396408 776.720276,35.396408 
	C776.720276,69.279198 776.720276,102.810684 776.720276,136.514343 
	C779.556458,136.514343 782.112488,136.514343 785.078796,136.514343 
	C785.078796,110.987015 785.078796,85.743523 785.078796,59.500027 
M769.375793,125.447937 
	C769.375793,95.386330 769.375793,65.324722 769.375793,35.370449 
	C766.219482,35.370449 763.798889,35.370449 761.357422,35.370449 
	C761.357422,69.239594 761.357422,102.806847 761.357422,136.544464 
	C764.068054,136.544464 766.488098,136.544464 769.375793,136.544464 
	C769.375793,133.025574 769.375793,129.725037 769.375793,125.447937 
M510.752136,82.144249 
	C509.319336,82.238113 507.886536,82.331978 506.499634,82.422829 
	C506.499634,85.432198 506.499634,88.008423 506.499634,91.085281 
	C516.187622,91.085281 525.570374,91.085281 535.313232,91.085281 
	C535.313232,102.473907 535.313232,113.352242 535.313232,124.497101 
	C536.171448,124.201111 536.674011,124.145073 537.030457,123.887115 
	C541.705566,120.503624 544.421265,116.518967 543.979980,110.128769 
	C543.344849,100.932190 543.817749,91.659088 543.817749,82.144234 
	C532.619324,82.144234 522.161133,82.144234 510.752136,82.144249 
z"/>
<path fill="#F3F3F3" opacity="1.000000" stroke="none" 
	d="
M491.330017,135.743744 
	C469.588440,130.000671 455.231903,117.057831 450.826233,95.098701 
	C444.903992,65.580788 468.203339,36.716148 498.336639,35.094955 
	C513.810730,34.262440 527.132446,38.975220 539.015625,49.864361 
	C537.148376,51.827099 535.386169,53.679405 533.415161,55.751225 
	C525.395020,48.981621 516.665588,44.423958 506.297821,43.798141 
	C488.260742,42.709385 473.956482,49.568699 464.502045,64.948914 
	C455.665314,79.324211 456.075165,94.316856 465.287384,108.345650 
	C475.249634,123.516632 489.955627,129.539108 507.904388,127.709846 
	C510.371155,127.458427 512.838684,126.902481 515.221313,126.200409 
	C520.728333,124.577728 520.707275,124.506310 520.390320,117.510307 
	C507.794159,123.447594 495.344666,123.778854 483.217834,116.702934 
	C475.584900,112.249146 470.206390,105.782005 467.294708,97.485176 
	C461.515198,81.016548 468.711243,63.118675 484.399506,54.381908 
	C498.669922,46.434734 518.277100,49.259525 527.705872,61.012615 
	C525.970520,62.659683 524.189880,64.349770 522.468506,65.983551 
	C504.329742,55.163109 488.926483,56.656178 479.199860,69.977318 
	C470.955872,81.267921 472.672791,96.735184 483.214233,106.142189 
	C493.727112,115.523674 509.413818,115.674622 520.061584,105.960541 
	C515.341370,105.960541 511.162384,105.960541 506.596497,105.960541 
	C506.596497,102.894859 506.596497,100.340927 506.596497,97.431580 
	C513.717529,97.431580 520.965271,97.431580 528.998169,97.431580 
	C528.998169,105.022881 528.997375,112.769211 528.998291,120.515549 
	C528.999512,130.987228 528.976013,130.912125 518.874207,134.158798 
	C509.947571,137.027786 500.912201,137.411209 491.330017,135.743744 
z"/>
<path fill="#F5F5F5" opacity="1.000000" stroke="none" 
	d="
M677.129395,101.828003 
	C655.423096,85.068886 633.985840,68.541840 611.579590,51.267754 
	C611.579590,80.376793 611.579590,108.363113 611.579590,136.560181 
	C608.483215,136.560181 606.058350,136.560181 603.326294,136.560181 
	C603.326294,102.734566 603.326294,69.065727 603.326294,34.518452 
	C626.562683,52.402046 649.253296,69.865570 672.767944,87.963287 
	C672.767944,69.750519 672.767944,52.697098 672.767944,35.354904 
	C675.609497,35.354904 678.033936,35.354904 681.229675,35.354904 
	C681.229675,36.954201 681.229675,38.696953 681.229675,40.439705 
	C681.229553,56.264690 681.516113,72.097725 681.072388,87.910263 
	C680.918762,93.385361 682.846252,96.650818 688.015198,99.311386 
	C688.015198,77.846268 688.015198,56.707184 688.015198,35.319550 
	C691.237976,35.319550 693.804504,35.319550 696.631104,35.319550 
	C696.631104,62.229271 696.631104,88.964699 696.631104,116.854034 
	C689.852417,111.639801 683.625488,106.849937 677.129395,101.828003 
z"/>
<path fill="#F3F3F3" opacity="1.000000" stroke="none" 
	d="
M347.000000,109.983589 
	C333.004333,109.983620 319.507568,110.076073 306.013947,109.910294 
	C303.109680,109.874611 301.513062,110.809242 300.199127,113.337982 
	C297.129974,119.244820 293.315216,124.806297 290.694977,130.891953 
	C288.299988,136.454330 284.696014,137.801880 278.170532,136.174500 
	C296.670563,102.523148 315.032959,69.122169 333.899445,34.804234 
	C347.885345,60.244678 361.375397,84.783142 375.229370,109.983589 
	C365.399994,109.983589 356.449982,109.983589 347.000000,109.983589 
M352.577728,85.924744 
	C346.469635,74.844307 340.361572,63.763859 333.912415,52.064709 
	C324.699188,68.826927 316.011353,84.633286 307.230713,100.608437 
	C315.979004,102.079544 315.983368,102.082054 319.888031,95.297867 
	C321.213928,92.994156 322.496704,90.665611 323.825439,88.363548 
	C327.078003,82.728378 330.345856,77.102028 333.672302,71.360374 
	C334.443665,72.048676 334.762024,72.219200 334.913940,72.484901 
	C339.201843,79.984024 343.472687,87.492905 347.746887,94.999855 
	C351.846283,102.199760 351.846588,102.199593 360.586548,100.546097 
	C357.991638,95.797867 355.468597,91.181107 352.577728,85.924744 
M335.661804,90.600235 
	C335.095490,89.862511 334.529205,89.124786 333.674927,88.011917 
	C331.130524,92.485764 328.831268,96.528580 326.240051,101.084747 
	C331.640015,101.084747 336.187683,101.084747 341.526215,101.084747 
	C339.517334,97.502831 337.773895,94.394226 335.661804,90.600235 
z"/>
<path fill="#F0F0F0" opacity="1.000000" stroke="none" 
	d="
M633.575623,77.462463 
	C652.713806,92.203987 671.434448,106.911415 690.539917,121.100609 
	C695.867676,125.057381 698.440979,129.157578 696.205627,136.303009 
	C673.466370,118.759087 650.778442,101.254745 627.237671,83.092430 
	C627.237671,101.406433 627.237671,118.874756 627.237671,136.561768 
	C624.104614,136.561768 621.661377,136.561768 618.796753,136.561768 
	C618.796753,113.400047 618.796753,90.238899 618.796753,66.267639 
	C623.902649,70.126884 628.603149,73.679657 633.575623,77.462463 
z"/>
<path fill="#F5F5F5" opacity="1.000000" stroke="none" 
	d="
M368.528381,132.488281 
	C369.223114,133.990387 369.715240,135.140320 370.199036,136.270752 
	C363.686218,138.290680 359.574097,136.185089 357.576294,130.115372 
	C356.199524,125.932564 353.326721,125.026161 349.135162,125.149200 
	C338.990631,125.446968 328.826202,125.386169 318.679199,125.115486 
	C314.748169,125.010620 311.959229,125.770172 310.597229,129.790588 
	C308.516022,135.933914 304.391235,138.461243 297.282104,136.156082 
	C300.645294,130.187683 303.938049,124.148521 307.490082,118.265915 
	C307.984924,117.446404 309.755249,117.047958 310.937042,117.044113 
	C332.742401,116.973351 354.548248,116.956032 376.353149,117.079636 
	C377.708344,117.087311 379.624878,117.994209 380.311768,119.089897 
	C383.738739,124.556442 386.841797,130.226028 390.095459,135.887955 
	C382.294891,138.068054 380.832489,137.499268 377.286743,131.109879 
	C373.749969,124.736671 373.749969,124.736679 364.945190,125.570900 
	C366.138214,127.887833 367.231964,130.011978 368.528381,132.488281 
z"/>
<path fill="#EEEEEE" opacity="1.000000" stroke="none" 
	d="
M785.078796,60.000027 
	C785.078796,85.743523 785.078796,110.987015 785.078796,136.514343 
	C782.112488,136.514343 779.556458,136.514343 776.720276,136.514343 
	C776.720276,102.810684 776.720276,69.279198 776.720276,35.396408 
	C779.294556,35.396408 781.845886,35.396408 785.078796,35.396408 
	C785.078796,43.337440 785.078796,51.418732 785.078796,60.000027 
z"/>
<path fill="#F8F8F8" opacity="1.000000" stroke="none" 
	d="
M769.375793,125.936218 
	C769.375793,129.725037 769.375793,133.025574 769.375793,136.544464 
	C766.488098,136.544464 764.068054,136.544464 761.357422,136.544464 
	C761.357422,102.806847 761.357422,69.239594 761.357422,35.370449 
	C763.798889,35.370449 766.219482,35.370449 769.375793,35.370449 
	C769.375793,65.324722 769.375793,95.386330 769.375793,125.936218 
z"/>
<path fill="#FE7001" opacity="1.000000" stroke="none" 
	d="
M107.998734,83.997696 
	C108.419502,82.751709 108.840271,81.505722 109.912102,80.069580 
	C115.299988,73.965446 121.789749,70.252937 128.832901,68.893898 
	C134.682587,67.765152 141.013687,69.131310 146.954742,69.649826 
	C143.919983,72.626785 141.062027,75.346176 137.941833,78.150047 
	C137.475372,78.528709 137.271133,78.822899 137.104706,79.113876 
	C137.142517,79.110664 137.172684,79.180321 136.774231,79.168259 
	C120.274635,81.667473 109.773262,91.899597 102.079903,105.179344 
	C97.312393,113.408684 93.924942,122.437531 89.614609,130.914856 
	C87.530815,124.824203 85.750427,118.926186 84.317566,112.964539 
	C86.469376,109.665428 88.234032,106.407066 90.085999,103.199104 
	C94.294586,95.908997 96.948967,87.465218 105.262238,82.988113 
	C105.726631,82.965729 105.911964,82.948990 106.097298,82.932243 
	C106.097298,82.932243 106.082169,82.984657 106.052505,83.327087 
	C106.663811,84.645958 107.304771,85.622391 107.945740,86.598824 
	C107.963402,85.731781 107.981064,84.864738 107.998734,83.997696 
z"/>
<path fill="#EDEDED" opacity="1.000000" stroke="none" 
	d="
M511.227539,82.144241 
	C522.161133,82.144234 532.619324,82.144234 543.817749,82.144234 
	C543.817749,91.659088 543.344849,100.932190 543.979980,110.128769 
	C544.421265,116.518967 541.705566,120.503624 537.030457,123.887115 
	C536.674011,124.145073 536.171448,124.201111 535.313232,124.497101 
	C535.313232,113.352242 535.313232,102.473907 535.313232,91.085281 
	C525.570374,91.085281 516.187622,91.085281 506.499634,91.085281 
	C506.499634,88.008423 506.499634,85.432198 506.499634,82.422829 
	C507.886536,82.331978 509.319336,82.238113 511.227539,82.144241 
z"/>
<path fill="#FD8802" opacity="1.000000" stroke="none" 
	d="
M98.932137,147.027802 
	C98.643791,146.911972 98.402390,146.732864 97.993912,146.057007 
	C97.503212,145.425934 97.226532,145.228348 96.949852,145.030762 
	C96.949852,145.030762 97.004120,145.010040 97.003098,144.701904 
	C96.654205,143.600494 96.306328,142.807205 96.322296,141.947983 
	C97.422401,140.845291 98.591660,139.897980 98.827133,138.757797 
	C100.908661,128.678711 105.062164,119.392708 111.103287,111.265121 
	C115.511894,105.333878 120.067162,98.822029 128.332245,97.607178 
	C128.255508,98.268898 128.181168,98.645378 127.927277,99.085678 
	C127.669106,99.246582 127.503662,99.388535 127.526680,99.433044 
	C127.633888,99.640434 127.793205,99.820892 127.907974,100.352203 
	C127.594994,101.796127 127.307915,102.898842 126.852509,104.081688 
	C126.618896,104.265984 126.473618,104.418938 126.502213,104.465836 
	C126.622780,104.663521 126.795197,104.829582 126.965195,105.444916 
	C126.972023,107.927132 126.962296,109.971642 126.701782,112.243996 
	C127.018486,113.975204 127.585976,115.478569 128.220703,117.134689 
	C128.287933,117.287437 128.259262,117.619980 128.178360,118.070129 
	C127.597000,120.293480 127.096535,122.066673 126.596069,123.839867 
	C124.992630,122.621223 123.236778,121.552017 121.841644,120.129128 
	C120.974037,119.244278 120.806953,117.712509 120.052765,116.667984 
	C118.613853,114.675163 117.133011,114.724808 115.637573,117.018654 
	C115.217896,117.698448 115.076035,118.339417 114.912643,119.273575 
	C114.594986,120.044052 114.298866,120.521355 113.672531,121.051315 
	C113.133377,122.383858 112.924431,123.663734 112.785484,125.209778 
	C112.910225,125.651085 112.964958,125.826210 112.893738,126.249176 
	C112.678658,126.659515 112.589531,126.822021 112.167076,127.107407 
	C111.384102,132.131760 110.271477,137.085800 110.654839,141.921219 
	C111.120178,147.790833 109.616974,151.459183 104.874489,152.095642 
	C104.874489,152.095642 104.978455,152.044220 104.940933,151.719772 
	C103.806786,150.713257 102.710167,150.031189 101.613548,149.349121 
	C101.613548,149.349121 101.734207,149.284042 101.736710,149.067871 
	C101.516495,148.567108 101.293777,148.282501 100.865875,147.767609 
	C100.084503,147.367462 99.508324,147.197632 98.932137,147.027802 
z"/>
<path fill="#FA8708" opacity="1.000000" stroke="none" 
	d="
M188.506744,145.527603 
	C185.958679,147.996490 183.410614,150.465378 180.286148,153.069794 
	C179.471207,153.451508 179.232666,153.697678 178.994125,153.943848 
	C178.994125,153.943848 178.996124,154.002884 178.620972,154.000519 
	C177.177307,154.698166 176.108810,155.398163 175.040314,156.098175 
	C175.040314,156.098175 175.013245,156.018814 174.656540,156.009293 
	C173.534195,155.165314 172.407333,154.452545 172.076813,153.471497 
	C171.350754,151.316467 171.027451,149.025711 170.605469,146.440018 
	C170.707535,145.384262 170.743866,144.678879 170.883621,143.575256 
	C171.278885,140.788574 171.570740,138.400085 171.947311,135.622391 
	C171.677444,133.156555 171.322830,131.079941 171.006714,128.679291 
	C170.696487,127.570312 170.347763,126.785385 169.985321,125.648056 
	C168.395676,122.834908 166.819778,120.374184 165.167587,117.571342 
	C162.808899,114.438652 160.526474,111.648071 158.152145,108.520157 
	C155.733597,104.451904 153.406952,100.720993 151.076935,96.583939 
	C150.756805,93.782028 150.440063,91.386246 150.477280,89.079491 
	C152.139969,91.839806 152.745453,95.468666 154.870071,97.028992 
	C170.125351,108.232506 176.916977,124.174530 181.036407,141.783188 
	C181.457687,143.583984 182.182724,145.313705 182.816177,147.225433 
	C184.989548,146.263138 186.474716,145.605576 188.093262,145.096039 
	C188.226639,145.244080 188.506744,145.527603 188.506744,145.527603 
z"/>
<path fill="#E64435" opacity="1.000000" stroke="none" 
	d="
M133.522232,38.012630 
	C133.893295,30.219341 131.977020,23.244646 126.426422,17.463879 
	C125.732193,16.740862 125.058479,14.975055 125.428848,14.478889 
	C126.077843,13.609461 127.568329,12.853193 128.663284,12.908045 
	C148.433456,13.898434 167.480377,23.297386 170.887650,47.564857 
	C170.375854,47.989754 170.194336,47.992874 170.008362,47.745911 
	C170.000168,47.329113 169.996429,47.162403 169.988525,46.610489 
	C168.292099,41.527206 168.215012,35.373562 162.940720,33.330349 
	C156.451019,30.816286 149.495438,29.157887 142.592255,28.155821 
	C135.718781,27.158068 135.667236,27.718214 134.959076,34.749519 
	C134.846268,35.869648 134.335129,36.949661 133.886047,38.048012 
	C133.763931,38.047802 133.522232,38.012630 133.522232,38.012630 
z"/>
<path fill="#ED5F13" opacity="1.000000" stroke="none" 
	d="
M171.486511,88.594154 
	C178.553986,91.603256 181.592285,90.687119 185.767502,83.767036 
	C187.750931,80.479660 189.430206,80.463875 191.743790,83.312088 
	C201.295334,95.070793 202.968155,108.744049 199.879074,122.789177 
	C198.328552,129.838943 194.030060,136.284302 190.568878,143.073685 
	C190.163422,143.144363 189.917099,142.935577 189.978851,142.618317 
	C190.691452,141.194962 191.342331,140.088882 192.158020,138.673584 
	C195.687363,131.571335 200.419083,125.427238 195.366943,116.900803 
	C191.196426,109.862259 188.773544,101.786346 185.598618,94.160797 
	C184.546021,91.632645 183.147278,90.841873 180.177612,91.624832 
	C176.916245,92.484711 173.131287,93.046272 171.091583,88.925888 
	C171.222733,88.814720 171.486511,88.594154 171.486511,88.594154 
z"/>
<path fill="#FB620E" opacity="1.000000" stroke="none" 
	d="
M116.982605,65.000687 
	C117.545265,63.851833 118.107925,62.702984 119.075180,61.132088 
	C119.591736,60.390438 119.703690,60.070827 119.815651,59.751217 
	C119.815651,59.751217 119.849571,59.863136 120.074471,59.782166 
	C120.460060,59.368961 120.620750,59.036732 120.781448,58.704506 
	C120.781448,58.704506 120.817909,58.825706 121.048241,58.752804 
	C121.428284,58.338223 121.577995,57.996544 121.727715,57.654869 
	C121.727715,57.654869 121.755829,57.807858 121.999222,57.738819 
	C122.501755,57.131184 122.760902,56.592587 123.020042,56.053989 
	C123.195885,55.759705 123.371719,55.465416 124.014465,54.988129 
	C124.748825,54.609329 124.923851,54.350925 125.006462,54.029907 
	C125.483604,53.424324 125.960754,52.818745 126.958954,52.118118 
	C127.480019,52.023075 127.970276,52.058723 128.077896,52.439419 
	C131.002350,53.173698 133.972214,54.275723 136.606583,53.737011 
	C143.788773,52.268311 150.273880,53.828152 156.654709,56.833366 
	C161.085373,58.920109 165.541367,60.953072 169.988556,63.419052 
	C169.330826,66.218536 168.670578,68.609009 167.703613,70.848305 
	C156.334946,62.471893 144.249115,58.589977 130.434692,61.917816 
	C125.962639,62.995121 121.467293,63.975803 116.982605,65.000687 
z"/>
<path fill="#FD6905" opacity="1.000000" stroke="none" 
	d="
M116.790535,65.291260 
	C121.467293,63.975803 125.962639,62.995121 130.434692,61.917816 
	C144.249115,58.589977 156.334946,62.471893 167.701401,71.276733 
	C167.999863,73.570259 167.993851,75.284180 167.619415,76.993332 
	C162.826340,74.656151 158.401672,72.323730 153.967041,69.716080 
	C153.710999,68.975708 153.464905,68.510567 153.139099,67.760750 
	C152.095703,67.335526 151.132019,67.194984 149.921661,67.129951 
	C149.451721,67.458282 149.228485,67.711098 148.855530,68.229401 
	C148.181046,68.794006 147.656296,69.093132 147.131531,69.392258 
	C141.013687,69.131310 134.682587,67.765152 128.832901,68.893898 
	C121.789749,70.252937 115.299988,73.965446 110.211365,79.914261 
	C112.105865,75.159996 114.352165,70.370911 116.790535,65.291260 
z"/>
<path fill="#E7591C" opacity="1.000000" stroke="none" 
	d="
M106.064194,82.502007 
	C105.911964,82.948990 105.726631,82.965729 105.106697,82.614021 
	C104.444237,80.286621 104.360596,78.296463 103.945473,76.378036 
	C103.576248,74.671738 102.839699,73.044914 102.265282,71.383011 
	C100.761169,72.166557 98.767349,72.577110 97.837425,73.798004 
	C93.734238,79.185059 89.605370,84.609993 86.179176,90.429428 
	C84.621101,93.075859 84.579895,96.653938 84.023300,99.839584 
	C83.550812,102.543922 83.326416,105.291603 82.716919,107.717941 
	C82.339226,103.757919 82.236847,100.100052 82.134468,96.442192 
	C83.725792,82.128189 89.061340,69.548355 99.513908,59.420338 
	C100.585045,58.382454 102.280823,57.989212 103.686752,57.296841 
	C104.151817,58.773216 104.930679,60.229221 105.028069,61.729465 
	C105.467827,68.503395 105.714706,75.289833 106.064194,82.502007 
z"/>
<path fill="#F1551E" opacity="1.000000" stroke="none" 
	d="
M169.992706,46.995697 
	C169.996429,47.162403 170.000168,47.329113 170.024673,48.041847 
	C170.345886,49.068748 170.646347,49.549622 170.958008,50.447479 
	C170.949860,52.254318 170.930511,53.644176 170.544678,55.016357 
	C167.813202,53.890186 165.476883,52.715004 163.078369,51.684593 
	C151.950760,46.904160 140.840210,41.416653 129.039291,50.056343 
	C128.994751,50.000954 128.899368,49.895527 128.899368,49.895527 
	C130.338745,46.181786 131.778122,42.468048 133.369873,38.383469 
	C133.522232,38.012630 133.763931,38.047802 134.136871,38.292435 
	C144.513229,37.330688 153.804169,39.625980 162.698990,44.113815 
	C165.023239,45.286495 167.555817,46.046280 169.992706,46.995697 
z"/>
<path fill="#F7A51F" opacity="1.000000" stroke="none" 
	d="
M160.961090,162.866913 
	C159.217453,163.387192 157.473831,163.907471 155.364334,164.109039 
	C154.263306,163.305588 153.528137,162.820847 152.792953,162.336105 
	C152.851181,163.154953 152.909409,163.973785 152.967636,164.792633 
	C144.852768,164.342255 136.737915,163.891861 128.304749,162.862015 
	C127.094780,161.236801 126.300690,160.083023 125.289452,159.169632 
	C123.617172,157.659195 121.804871,156.303787 120.437164,154.909439 
	C128.944687,157.533585 137.024734,160.886536 145.732132,159.850693 
	C151.882919,159.118988 157.903671,157.294418 163.848724,156.268677 
	C161.747375,158.214432 159.779800,159.849258 157.761337,161.526352 
	C158.921936,162.012604 159.941513,162.439758 160.961090,162.866913 
M145.066406,163.174133 
	C145.211594,163.419159 145.308029,163.785187 145.517868,163.869720 
	C145.676666,163.933701 145.980209,163.638428 146.219330,163.503021 
	C145.979980,163.367111 145.740631,163.231201 145.066406,163.174133 
z"/>
<path fill="#F3950F" opacity="1.000000" stroke="none" 
	d="
M120.051575,154.883041 
	C121.804871,156.303787 123.617172,157.659195 125.289452,159.169632 
	C126.300690,160.083023 127.094780,161.236801 127.990479,162.648346 
	C119.329651,161.912247 112.043427,157.754410 105.015564,152.403412 
	C109.616974,151.459183 111.120178,147.790833 110.654839,141.921219 
	C110.271477,137.085800 111.384102,132.131760 112.298508,127.522507 
	C112.799171,132.549179 112.835091,137.283661 112.717102,142.264282 
	C115.059326,146.634644 117.555450,150.758850 120.051575,154.883041 
z"/>
<path fill="#F4930B" opacity="1.000000" stroke="none" 
	d="
M161.338974,162.908554 
	C159.941513,162.439758 158.921936,162.012604 157.761337,161.526352 
	C159.779800,159.849258 161.747375,158.214432 164.137558,156.100037 
	C166.343903,152.723724 168.127655,149.826981 170.062378,146.867798 
	C170.213333,146.805344 170.539719,146.790375 170.539719,146.790375 
	C171.027451,149.025711 171.350754,151.316467 172.076813,153.471497 
	C172.407333,154.452545 173.534195,155.165314 174.692413,156.030991 
	C170.628967,158.358200 166.172913,160.654190 161.338974,162.908554 
z"/>
<path fill="#CB6313" opacity="1.000000" stroke="none" 
	d="
M81.929184,96.745705 
	C82.236847,100.100052 82.339226,103.757919 82.719879,108.111275 
	C83.025246,109.857018 83.052330,110.907265 83.154007,112.180664 
	C83.389656,112.689438 83.623978,112.889076 83.940498,113.010696 
	C83.949448,113.018669 83.970039,113.028175 83.970039,113.028175 
	C85.750427,118.926186 87.530815,124.824203 89.631851,131.273849 
	C91.679543,135.172760 93.406586,138.520035 95.013290,141.978745 
	C94.892960,142.090179 94.648911,142.309326 94.648911,142.309326 
	C83.873940,129.069305 80.271713,113.780960 81.929184,96.745705 
z"/>
<path fill="#ED5F13" opacity="1.000000" stroke="none" 
	d="
M167.987823,76.998093 
	C167.993851,75.284180 167.999863,73.570259 168.008118,71.427917 
	C168.670578,68.609009 169.330826,66.218536 170.142914,63.069580 
	C170.529343,60.560886 170.763931,58.810661 171.221146,57.050011 
	C171.443787,57.039585 171.888809,57.013958 171.888809,57.013958 
	C171.380905,62.225922 170.729156,67.429077 170.409424,72.652557 
	C170.140701,77.042984 170.258560,81.457062 170.138138,86.395210 
	C170.070999,86.929749 169.875183,87.089127 169.566772,86.857887 
	C168.834854,83.417130 168.411331,80.207611 167.987823,76.998093 
z"/>
<path fill="#FB630C" opacity="1.000000" stroke="none" 
	d="
M107.720474,83.935913 
	C107.981064,84.864738 107.963402,85.731781 107.945740,86.598824 
	C107.304771,85.622391 106.663811,84.645958 106.035667,83.305634 
	C106.513069,83.252541 106.977646,83.563332 107.720474,83.935913 
z"/>
<path fill="#F4930B" opacity="1.000000" stroke="none" 
	d="
M153.333252,164.856842 
	C152.909409,163.973785 152.851181,163.154953 152.792953,162.336105 
	C153.528137,162.820847 154.263306,163.305588 155.027466,164.097336 
	C154.603928,164.576569 154.151398,164.748810 153.333252,164.856842 
z"/>
<path fill="#E64435" opacity="1.000000" stroke="none" 
	d="
M171.998596,56.579655 
	C171.888809,57.013958 171.443787,57.039585 171.212357,56.710991 
	C170.957687,55.932938 170.934433,55.483486 170.911179,55.034031 
	C170.930511,53.644176 170.949860,52.254318 171.099762,50.430180 
	C171.230347,49.995895 171.515381,49.992126 171.515381,49.992126 
	C171.713043,52.043201 171.910721,54.094276 171.998596,56.579655 
z"/>
<path fill="#F3950F" opacity="1.000000" stroke="none" 
	d="
M101.691055,149.664978 
	C102.710167,150.031189 103.806786,150.713257 104.906670,151.766571 
	C103.862816,151.418823 102.815689,150.699829 101.691055,149.664978 
z"/>
<path fill="#F4930B" opacity="1.000000" stroke="none" 
	d="
M175.375305,156.067596 
	C176.108810,155.398163 177.177307,154.698166 178.593597,153.989456 
	C177.864365,154.666168 176.787338,155.351593 175.375305,156.067596 
z"/>
<path fill="#F14D29" opacity="1.000000" stroke="none" 
	d="
M171.596054,49.727066 
	C171.515381,49.992126 171.230347,49.995895 171.088577,50.013199 
	C170.646347,49.549622 170.345886,49.068748 170.029114,48.291935 
	C170.194336,47.992874 170.375854,47.989754 170.829361,47.972908 
	C171.293152,48.460117 171.484940,48.961060 171.596054,49.727066 
z"/>
<path fill="#CB6313" opacity="1.000000" stroke="none" 
	d="
M95.958450,142.013931 
	C96.306328,142.807205 96.654205,143.600494 96.979477,144.719986 
	C96.258636,144.325073 95.560402,143.603943 94.755539,142.596069 
	C94.648911,142.309326 94.892960,142.090179 95.216339,142.031189 
	C95.539711,141.972198 95.958450,142.013931 95.958450,142.013931 
z"/>
<path fill="#CB6313" opacity="1.000000" stroke="none" 
	d="
M98.989426,147.333633 
	C99.508324,147.197632 100.084503,147.367462 100.854950,148.026093 
	C101.031403,148.686508 101.013611,148.858139 100.995811,149.029770 
	C100.346115,148.566330 99.696411,148.102890 98.989426,147.333633 
z"/>
<path fill="#ED5F13" opacity="1.000000" stroke="none" 
	d="
M170.167297,86.848137 
	C170.610092,87.198959 170.956573,87.631393 171.394791,88.328995 
	C171.486511,88.594154 171.222733,88.814720 170.861404,88.749756 
	C170.291779,88.152908 170.083481,87.621017 169.875183,87.089127 
	C169.875183,87.089127 170.070999,86.929749 170.167297,86.848137 
z"/>
<path fill="#ED5F13" opacity="1.000000" stroke="none" 
	d="
M190.286591,143.248779 
	C190.112854,143.816177 189.815964,144.279175 189.213806,144.614243 
	C188.908508,144.486298 188.859741,144.034912 188.999176,143.816132 
	C189.398117,143.376770 189.657608,143.156174 189.917099,142.935577 
	C189.917099,142.935577 190.163422,143.144363 190.286591,143.248779 
z"/>
<path fill="#F1551E" opacity="1.000000" stroke="none" 
	d="
M122.737701,56.149609 
	C122.760902,56.592587 122.501755,57.131184 121.926575,57.711056 
	C121.892143,57.249962 122.173752,56.747597 122.737701,56.149609 
z"/>
<path fill="#F1551E" opacity="1.000000" stroke="none" 
	d="
M127.912621,50.925758 
	C128.079300,50.637062 128.245956,50.348362 128.656006,49.977592 
	C128.899368,49.895527 128.994751,50.000954 128.914307,50.251755 
	C128.637024,50.747646 128.399200,50.942783 128.067795,51.048225 
	C128.015213,51.008492 127.912621,50.925758 127.912621,50.925758 
z"/>
<path fill="#F1551E" opacity="1.000000" stroke="none" 
	d="
M127.970276,52.058723 
	C127.970276,52.058723 127.480019,52.023075 127.234451,52.010132 
	C127.129845,51.690487 127.270821,51.383781 127.662209,51.001419 
	C127.912621,50.925758 128.015213,51.008492 128.027130,51.290401 
	C128.039062,51.572311 127.970276,52.058723 127.970276,52.058723 
z"/>
<path fill="#F1551E" opacity="1.000000" stroke="none" 
	d="
M124.763199,54.094692 
	C124.923851,54.350925 124.748825,54.609329 124.266830,54.907585 
	C124.208160,54.726521 124.364044,54.442997 124.763199,54.094692 
z"/>
<path fill="#F4930B" opacity="1.000000" stroke="none" 
	d="
M179.261047,153.903503 
	C179.232666,153.697678 179.471207,153.451508 179.962418,153.136627 
	C179.986053,153.332993 179.757019,153.598083 179.261047,153.903503 
z"/>
<path fill="#F1551E" opacity="1.000000" stroke="none" 
	d="
M121.459290,57.738857 
	C121.577995,57.996544 121.428284,58.338223 120.987175,58.736191 
	C120.860809,58.469273 121.025841,58.146061 121.459290,57.738857 
z"/>
<path fill="#F3950F" opacity="1.000000" stroke="none" 
	d="
M101.132401,149.193985 
	C101.013611,148.858139 101.031403,148.686508 101.060127,148.256378 
	C101.293777,148.282501 101.516495,148.567108 101.715820,149.133148 
	C101.692421,149.414612 101.268982,149.358200 101.132401,149.193985 
z"/>
<path fill="#F1551E" opacity="1.000000" stroke="none" 
	d="
M120.508423,58.783417 
	C120.620750,59.036732 120.460060,59.368961 120.017059,59.771065 
	C119.901634,59.514736 120.068520,59.188534 120.508423,58.783417 
z"/>
<path fill="#F1551E" opacity="1.000000" stroke="none" 
	d="
M119.555916,59.856850 
	C119.703690,60.070827 119.591736,60.390438 119.258377,60.847351 
	C119.123375,60.643925 119.209778,60.303204 119.555916,59.856850 
z"/>
<path fill="#CB6313" opacity="1.000000" stroke="none" 
	d="
M96.977539,145.314545 
	C97.226532,145.228348 97.503212,145.425934 97.866882,145.868408 
	C97.637665,145.941650 97.321449,145.769989 96.977539,145.314545 
z"/>
<path fill="#FA8708" opacity="1.000000" stroke="none" 
	d="
M188.859741,144.034912 
	C188.859741,144.034912 188.908508,144.486298 188.950851,144.709198 
	C188.993195,144.932114 188.856689,145.317993 188.681717,145.422791 
	C188.506744,145.527603 188.226639,145.244080 188.201630,144.904877 
	C188.352005,144.321411 188.579712,144.144485 188.859741,144.034912 
z"/>
<path fill="#0B0B0B" opacity="1.000000" stroke="none" 
	d="
M352.761627,86.244545 
	C355.468597,91.181107 357.991638,95.797867 360.586548,100.546097 
	C351.846588,102.199593 351.846283,102.199760 347.746887,94.999855 
	C343.472687,87.492905 339.201843,79.984024 334.913940,72.484901 
	C334.762024,72.219200 334.443665,72.048676 333.672302,71.360374 
	C330.345856,77.102028 327.078003,82.728378 323.825439,88.363548 
	C322.496704,90.665611 321.213928,92.994156 319.888031,95.297867 
	C315.983368,102.082054 315.979004,102.079544 307.230713,100.608437 
	C316.011353,84.633286 324.699188,68.826927 333.912415,52.064709 
	C340.361572,63.763859 346.469635,74.844307 352.761627,86.244545 
z"/>
<path fill="#101010" opacity="1.000000" stroke="none" 
	d="
M335.846130,90.942924 
	C337.773895,94.394226 339.517334,97.502831 341.526215,101.084747 
	C336.187683,101.084747 331.640015,101.084747 326.240051,101.084747 
	C328.831268,96.528580 331.130524,92.485764 333.674927,88.011917 
	C334.529205,89.124786 335.095490,89.862511 335.846130,90.942924 
z"/>
<path fill="#FD7C02" opacity="1.000000" stroke="none" 
	d="
M96.322296,141.947983 
	C95.958450,142.013931 95.539711,141.972198 95.336670,141.919754 
	C93.406586,138.520035 91.679543,135.172760 89.935257,131.466492 
	C93.924942,122.437531 97.312393,113.408684 102.079903,105.179344 
	C109.773262,91.899597 120.274635,81.667473 136.696350,79.504364 
	C134.763824,83.924957 132.510742,87.997383 129.895233,92.192612 
	C129.079910,93.921700 128.627029,95.527977 128.229858,97.167847 
	C128.285568,97.201431 128.334641,97.321930 128.334641,97.321930 
	C120.067162,98.822029 115.511894,105.333878 111.103287,111.265121 
	C105.062164,119.392708 100.908661,128.678711 98.827133,138.757797 
	C98.591660,139.897980 97.422401,140.845291 96.322296,141.947983 
z"/>
<path fill="#FFEB71" opacity="1.000000" stroke="none" 
	d="
M130.257660,92.069809 
	C132.510742,87.997383 134.763824,83.924957 137.094788,79.516426 
	C137.172684,79.180321 137.142517,79.110664 137.365356,79.029465 
	C137.793488,78.654037 137.998764,78.359802 138.204056,78.065567 
	C141.062027,75.346176 143.919983,72.626785 146.954742,69.649826 
	C147.656296,69.093132 148.181046,68.794006 149.103516,68.157913 
	C149.723602,67.565445 149.945969,67.309944 150.168350,67.054443 
	C151.132019,67.194984 152.095703,67.335526 153.018738,68.049973 
	C152.935272,69.036644 152.892441,69.449417 152.857239,69.875641 
	C152.864868,69.889084 152.885468,69.912155 152.628326,70.125763 
	C152.160721,71.200500 151.950241,72.061646 151.554642,73.139870 
	C151.288376,73.913330 151.207230,74.469711 150.995529,75.383247 
	C150.626541,77.482948 150.388107,79.225479 150.075455,81.301208 
	C150.000366,82.088654 149.999496,82.542900 149.779114,83.190971 
	C149.702957,84.258736 149.846283,85.132675 149.958252,86.380692 
	C149.992340,87.500000 150.057831,88.245232 150.123322,88.990471 
	C150.440063,91.386246 150.756805,93.782028 150.650833,96.586594 
	C146.211243,95.572159 140.187576,98.142059 139.258041,91.153198 
	C135.993835,92.186409 133.101410,93.101944 130.172485,93.693298 
	C130.176559,92.936005 130.217117,92.502907 130.257660,92.069809 
z"/>
<path fill="#FB630C" opacity="1.000000" stroke="none" 
	d="
M83.079414,111.957512 
	C83.052330,110.907265 83.025246,109.857018 82.995209,108.413437 
	C83.326416,105.291603 83.550812,102.543922 84.023300,99.839584 
	C84.579895,96.653938 84.621101,93.075859 86.179176,90.429428 
	C89.605370,84.609993 93.734238,79.185059 97.837425,73.798004 
	C98.767349,72.577110 100.761169,72.166557 102.265282,71.383011 
	C102.839699,73.044914 103.576248,74.671738 103.945473,76.378036 
	C104.360596,78.296463 104.444237,80.286621 104.827621,82.619675 
	C96.948967,87.465218 94.294586,95.908997 90.085999,103.199104 
	C88.234032,106.407066 86.469376,109.665428 84.317566,112.964539 
	C83.970039,113.028175 83.949448,113.018669 83.857330,112.794342 
	C83.594032,112.301567 83.365433,112.097404 83.079414,111.957512 
z"/>
<path fill="#FD7C02" opacity="1.000000" stroke="none" 
	d="
M137.941833,78.150040 
	C137.998764,78.359802 137.793488,78.654037 137.327545,79.032684 
	C137.271133,78.822899 137.475372,78.528709 137.941833,78.150040 
z"/>
<path fill="#FFF07B" opacity="1.000000" stroke="none" 
	d="
M130.208984,94.017479 
	C133.101410,93.101944 135.993835,92.186409 139.258041,91.153198 
	C140.187576,98.142059 146.211243,95.572159 150.654236,96.992729 
	C153.406952,100.720993 155.733597,104.451904 157.787231,108.688889 
	C155.783112,109.721245 154.012848,110.145584 152.328033,110.792473 
	C146.757950,112.931107 141.432388,114.104034 135.705856,110.607498 
	C133.429092,109.217354 129.857803,108.780312 127.635788,112.179382 
	C127.411674,112.110779 126.952560,112.016151 126.952560,112.016151 
	C126.962296,109.971642 126.972023,107.927132 127.027657,105.196663 
	C127.055984,104.340981 127.038406,104.171265 127.020828,104.001556 
	C127.307915,102.898842 127.594994,101.796127 127.992111,100.112015 
	C128.103714,99.361015 128.105270,99.191429 128.106812,99.021851 
	C128.181168,98.645378 128.255508,98.268898 128.332245,97.607178 
	C128.334641,97.321930 128.285568,97.201431 128.496887,97.003586 
	C129.208450,95.876312 129.708710,94.946892 130.208984,94.017479 
z"/>
<path fill="#FFF38A" opacity="1.000000" stroke="none" 
	d="
M127.859909,112.247993 
	C129.857803,108.780312 133.429092,109.217354 135.705856,110.607498 
	C141.432388,114.104034 146.757950,112.931107 152.328033,110.792473 
	C154.012848,110.145584 155.783112,109.721245 157.879150,109.026230 
	C160.526474,111.648071 162.808899,114.438652 164.746140,117.599998 
	C162.016830,118.610123 159.633728,119.253349 157.248352,119.888023 
	C152.515366,121.147316 147.839493,123.007034 143.029327,123.470840 
	C139.036758,123.855812 134.885498,122.595100 130.578186,121.833969 
	C129.654297,120.276344 128.956772,118.948166 128.259262,117.619980 
	C128.259262,117.619980 128.287933,117.287437 128.221420,116.734871 
	C128.056564,114.870865 127.958237,113.559433 127.859909,112.247993 
z"/>
<path fill="#FFF6A6" opacity="1.000000" stroke="none" 
	d="
M169.999039,126.000465 
	C170.347763,126.785385 170.696487,127.570312 170.634766,128.684662 
	C168.578491,129.731964 166.909592,130.401688 165.291397,131.177216 
	C161.285553,133.097061 157.490997,135.801361 153.276276,136.878372 
	C139.743820,140.336365 127.860573,136.753891 117.599709,127.302505 
	C116.557648,126.342667 114.569046,126.410431 113.019691,126.001335 
	C112.964958,125.826210 112.910225,125.651085 112.995743,124.916763 
	C113.424904,123.237938 113.713821,122.118294 114.002731,120.998657 
	C114.298866,120.521355 114.594986,120.044052 115.179710,119.143852 
	C115.972939,118.145821 116.477562,117.570694 117.312805,117.108063 
	C120.585052,121.187828 122.333092,126.344658 128.110184,127.894882 
	C140.232727,134.741272 151.887573,133.215576 163.022125,126.214172 
	C165.669418,124.549568 167.612976,124.320557 169.999039,126.000465 
z"/>
<path fill="#FFF2AA" opacity="1.000000" stroke="none" 
	d="
M112.893738,126.249176 
	C114.569046,126.410431 116.557648,126.342667 117.599709,127.302505 
	C127.860573,136.753891 139.743820,140.336365 153.276276,136.878372 
	C157.490997,135.801361 161.285553,133.097061 165.291397,131.177216 
	C166.909592,130.401688 168.578491,129.731964 170.596283,129.008713 
	C171.322830,131.079941 171.677444,133.156555 171.592529,135.570068 
	C169.147842,136.107468 166.718994,135.643982 165.202972,136.611206 
	C150.025665,146.294296 131.691055,144.614670 118.484543,134.070251 
	C117.421249,133.221283 116.033524,132.778671 114.000610,131.740906 
	C114.000610,135.780533 114.000610,138.889038 113.718239,142.004578 
	C113.247581,142.013779 113.059288,142.015945 112.871002,142.018127 
	C112.835091,137.283661 112.799171,132.549179 112.631836,127.399612 
	C112.589531,126.822021 112.678658,126.659515 112.893738,126.249176 
z"/>
<path fill="#F7A21C" opacity="1.000000" stroke="none" 
	d="
M127.991806,127.604012 
	C122.333092,126.344658 120.585052,121.187828 117.046036,117.110489 
	C116.270897,116.993561 116.093147,116.986694 115.915390,116.979836 
	C117.133011,114.724808 118.613853,114.675163 120.052765,116.667984 
	C120.806953,117.712509 120.974037,119.244278 121.841644,120.129128 
	C123.236778,121.552017 124.992630,122.621223 126.596069,123.839867 
	C127.096535,122.066673 127.597000,120.293480 128.178360,118.070129 
	C128.956772,118.948166 129.654297,120.276344 130.600494,122.211357 
	C129.896729,124.413460 128.944260,126.008736 127.991806,127.604012 
z"/>
<path fill="#F7A21C" opacity="1.000000" stroke="none" 
	d="
M127.635788,112.179382 
	C127.958237,113.559433 128.056564,114.870865 128.154175,116.582123 
	C127.585976,115.478569 127.018486,113.975204 126.701782,112.243996 
	C126.952560,112.016151 127.411674,112.110779 127.635788,112.179382 
z"/>
<path fill="#F3950F" opacity="1.000000" stroke="none" 
	d="
M113.672531,121.051315 
	C113.713821,122.118294 113.424904,123.237938 112.925735,124.650597 
	C112.924431,123.663734 113.133377,122.383858 113.672531,121.051315 
z"/>
<path fill="#F3950F" opacity="1.000000" stroke="none" 
	d="
M115.637573,117.018654 
	C116.093147,116.986694 116.270897,116.993561 116.715424,116.997993 
	C116.477562,117.570694 115.972939,118.145821 115.201241,118.850670 
	C115.076035,118.339417 115.217896,117.698448 115.637573,117.018654 
z"/>
<path fill="#F7A21C" opacity="1.000000" stroke="none" 
	d="
M127.927277,99.085678 
	C128.105270,99.191429 128.103714,99.361015 128.018021,99.770798 
	C127.793205,99.820892 127.633888,99.640434 127.526680,99.433044 
	C127.503662,99.388535 127.669106,99.246582 127.927277,99.085678 
z"/>
<path fill="#F7A21C" opacity="1.000000" stroke="none" 
	d="
M126.852516,104.081688 
	C127.038406,104.171265 127.055984,104.340981 127.011108,104.758957 
	C126.795197,104.829582 126.622780,104.663521 126.502213,104.465836 
	C126.473618,104.418938 126.618896,104.265984 126.852516,104.081688 
z"/>
<path fill="#FE7A01" opacity="1.000000" stroke="none" 
	d="
M150.477280,89.079491 
	C150.057831,88.245232 149.992340,87.500000 150.207108,86.195641 
	C150.324432,84.756729 150.161530,83.876938 149.998627,82.997147 
	C149.999496,82.542900 150.000366,82.088654 150.292450,81.136604 
	C151.052307,80.091263 151.520935,79.543732 152.033539,79.347305 
	C153.273346,80.747780 154.323120,82.071404 155.690125,82.799286 
	C161.760025,86.031311 167.120483,89.935822 171.198822,95.671761 
	C178.447006,105.865959 184.814407,116.373650 187.558823,128.820343 
	C188.339645,132.361572 190.477600,135.603577 191.993210,138.982788 
	C191.342331,140.088882 190.691452,141.194962 189.978851,142.618317 
	C189.657608,143.156174 189.398117,143.376770 188.999176,143.816132 
	C188.579712,144.144485 188.352005,144.321411 188.068253,144.756836 
	C186.474716,145.605576 184.989548,146.263138 182.816177,147.225433 
	C182.182724,145.313705 181.457687,143.583984 181.036407,141.783188 
	C176.916977,124.174530 170.125351,108.232506 154.870071,97.028992 
	C152.745453,95.468666 152.139969,91.839806 150.477280,89.079491 
z"/>
<path fill="#FFF8BB" opacity="1.000000" stroke="none" 
	d="
M114.000610,141.997559 
	C114.000610,138.889038 114.000610,135.780533 114.000610,131.740906 
	C116.033524,132.778671 117.421249,133.221283 118.484543,134.070251 
	C131.691055,144.614670 150.025665,146.294296 165.202972,136.611206 
	C166.718994,135.643982 169.147842,136.107468 171.507812,135.959290 
	C171.570740,138.400085 171.278885,140.788574 170.525925,143.584915 
	C169.432709,144.168335 168.720963,144.212006 168.180115,144.538635 
	C153.082123,153.656967 137.740448,154.757263 122.063133,146.040237 
	C119.656837,144.702286 117.205307,143.445663 114.579483,142.121460 
	C114.384270,142.091507 114.000610,141.997559 114.000610,141.997559 
z"/>
<path fill="#FFF499" opacity="1.000000" stroke="none" 
	d="
M128.110168,127.894882 
	C128.944260,126.008736 129.896729,124.413460 130.826859,122.440811 
	C134.885498,122.595100 139.036758,123.855812 143.029327,123.470840 
	C147.839493,123.007034 152.515366,121.147316 157.248352,119.888023 
	C159.633728,119.253349 162.016830,118.610123 164.822418,117.942108 
	C166.819778,120.374184 168.395676,122.834908 169.985321,125.648056 
	C167.612976,124.320557 165.669418,124.549568 163.022125,126.214172 
	C151.887573,133.215576 140.232727,134.741272 128.110168,127.894882 
z"/>
<path fill="#FFF2AA" opacity="1.000000" stroke="none" 
	d="
M114.774696,142.151428 
	C117.205307,143.445663 119.656837,144.702286 122.063133,146.040237 
	C137.740448,154.757263 153.082123,153.656967 168.180115,144.538635 
	C168.720963,144.212006 169.432709,144.168335 170.422501,143.983124 
	C170.743866,144.678879 170.707535,145.384262 170.605469,146.440018 
	C170.539719,146.790375 170.213333,146.805344 169.709229,146.916183 
	C155.829102,154.849548 141.798111,156.735336 127.185715,151.139404 
	C122.364426,149.293045 116.913734,147.889084 114.774696,142.151428 
z"/>
<path fill="#F14D29" opacity="1.000000" stroke="none" 
	d="
M169.988525,46.610489 
	C167.555817,46.046280 165.023239,45.286495 162.698990,44.113815 
	C153.804169,39.625980 144.513229,37.330688 134.258972,38.292641 
	C134.335129,36.949661 134.846268,35.869648 134.959076,34.749519 
	C135.667236,27.718214 135.718781,27.158068 142.592255,28.155821 
	C149.495438,29.157887 156.451019,30.816286 162.940720,33.330349 
	C168.215012,35.373562 168.292099,41.527206 169.988525,46.610489 
z"/>
<path fill="#FE6F02" opacity="1.000000" stroke="none" 
	d="
M192.158020,138.673584 
	C190.477600,135.603577 188.339645,132.361572 187.558823,128.820343 
	C184.814407,116.373650 178.447006,105.865959 171.198822,95.671761 
	C167.120483,89.935822 161.760025,86.031311 155.690125,82.799286 
	C154.323120,82.071404 153.273346,80.747780 152.035095,78.989662 
	C151.703812,77.195969 151.414963,76.111031 151.126099,75.026085 
	C151.207230,74.469711 151.288376,73.913330 151.872559,72.980530 
	C152.545578,71.706795 152.715515,70.809471 152.885468,69.912155 
	C152.885468,69.912155 152.864868,69.889084 153.138184,69.921097 
	C153.600021,69.965851 153.788513,69.978584 153.976990,69.991310 
	C158.401672,72.323730 162.826340,74.656151 167.619415,76.993332 
	C168.411331,80.207611 168.834854,83.417130 169.566772,86.857887 
	C170.083481,87.621017 170.291779,88.152908 170.730255,88.860931 
	C173.131287,93.046272 176.916245,92.484711 180.177612,91.624832 
	C183.147278,90.841873 184.546021,91.632645 185.598618,94.160797 
	C188.773544,101.786346 191.196426,109.862259 195.366943,116.900803 
	C200.419083,125.427238 195.687363,131.571335 192.158020,138.673584 
z"/>
<path fill="#FA5B16" opacity="1.000000" stroke="none" 
	d="
M128.077896,52.439419 
	C127.970276,52.058723 128.039062,51.572311 128.079712,51.330135 
	C128.399200,50.942783 128.637024,50.747646 128.958832,50.307144 
	C140.840210,41.416653 151.950760,46.904160 163.078369,51.684593 
	C165.476883,52.715004 167.813202,53.890186 170.544678,55.016357 
	C170.934433,55.483486 170.957687,55.932938 170.989716,56.721416 
	C170.763931,58.810661 170.529343,60.560886 170.140411,62.660583 
	C165.541367,60.953072 161.085373,58.920109 156.654709,56.833366 
	C150.273880,53.828152 143.788773,52.268311 136.606583,53.737011 
	C133.972214,54.275723 131.002350,53.173698 128.077896,52.439419 
z"/>
<path fill="#FA8708" opacity="1.000000" stroke="none" 
	d="
M153.967041,69.716080 
	C153.788513,69.978584 153.600021,69.965851 153.130554,69.907654 
	C152.892441,69.449417 152.935272,69.036644 153.098465,68.334656 
	C153.464905,68.510567 153.710999,68.975708 153.967041,69.716080 
z"/>
<path fill="#FE7001" opacity="1.000000" stroke="none" 
	d="
M149.921661,67.129951 
	C149.945969,67.309944 149.723602,67.565445 149.253235,67.892441 
	C149.228485,67.711098 149.451721,67.458282 149.921661,67.129951 
z"/>
<path fill="#FFCB5E" opacity="1.000000" stroke="none" 
	d="
M114.579483,142.121460 
	C116.913734,147.889084 122.364426,149.293045 127.185715,151.139404 
	C141.798111,156.735336 155.829102,154.849548 169.558273,146.978638 
	C168.127655,149.826981 166.343903,152.723724 164.271317,155.789108 
	C157.903671,157.294418 151.882919,159.118988 145.732132,159.850693 
	C137.024734,160.886536 128.944687,157.533585 120.437164,154.909439 
	C117.555450,150.758850 115.059326,146.634644 112.717102,142.264282 
	C113.059288,142.015945 113.247581,142.013779 113.718239,142.004578 
	C114.000610,141.997559 114.384270,142.091507 114.579483,142.121460 
z"/>
<path fill="#F4930B" opacity="1.000000" stroke="none" 
	d="
M145.283844,163.134705 
	C145.740631,163.231201 145.979980,163.367111 146.219330,163.503021 
	C145.980209,163.638428 145.676666,163.933701 145.517868,163.869720 
	C145.308029,163.785187 145.211594,163.419159 145.283844,163.134705 
z"/>
<path fill="#E7591C" opacity="1.000000" stroke="none" 
	d="
M83.154007,112.180664 
	C83.365433,112.097404 83.594032,112.301567 83.848389,112.786362 
	C83.623978,112.889076 83.389656,112.689438 83.154007,112.180664 
z"/>
<path fill="#FD8802" opacity="1.000000" stroke="none" 
	d="
M130.172485,93.693298 
	C129.708710,94.946892 129.208450,95.876312 128.441162,96.970001 
	C128.627029,95.527977 129.079910,93.921700 129.895233,92.192612 
	C130.217117,92.502907 130.176559,92.936005 130.172485,93.693298 
z"/>
<path fill="#FA8708" opacity="1.000000" stroke="none" 
	d="
M150.995529,75.383247 
	C151.414963,76.111031 151.703812,77.195969 151.991119,78.638550 
	C151.520935,79.543732 151.052307,80.091263 150.366684,80.803406 
	C150.388107,79.225479 150.626541,77.482948 150.995529,75.383247 
z"/>
<path fill="#FA8708" opacity="1.000000" stroke="none" 
	d="
M149.779114,83.190971 
	C150.161530,83.876938 150.324432,84.756729 150.238495,85.821564 
	C149.846283,85.132675 149.702957,84.258736 149.779114,83.190971 
z"/>
<path fill="#FA8708" opacity="1.000000" stroke="none" 
	d="
M152.628326,70.125763 
	C152.715515,70.809471 152.545578,71.706795 152.057709,72.763443 
	C151.950241,72.061646 152.160721,71.200500 152.628326,70.125763 
z"/>
</svg>