<?xml version="1.0" encoding="UTF-8"?>
<svg xmlns="http://www.w3.org/2000/svg" xmlns:xlink="http://www.w3.org/1999/xlink" width="24px" height="24px" viewBox="0 0 24 24" version="1.1">
<g id="surface1">
<path style="fill:none;stroke-width:1.776;stroke-linecap:round;stroke-linejoin:round;stroke:rgb(95.686275%,53.725493%,31.764707%);stroke-opacity:1;stroke-miterlimit:4;" d="M 22 12 C 22 14.757812 20.882812 17.253906 19.078125 19.0625 M 2 12 C 2 9.234375 3.121094 6.730469 4.9375 4.921875 M 19.140625 5 C 19.988281 5.863281 20.675781 6.878906 21.167969 8 M 5 19.140625 C 4.089844 18.25 3.347656 17.183594 2.832031 16 "/>
<path style="fill:none;stroke-width:1.776;stroke-linecap:round;stroke-linejoin:round;stroke:rgb(95.686275%,53.725493%,31.764707%);stroke-opacity:1;stroke-miterlimit:4;" d="M 16.285156 8.042969 C 17.347656 9.058594 18 10.449219 18 11.980469 C 18 13.535156 17.332031 14.9375 16.246094 15.957031 M 7.800781 16 C 6.6875 14.980469 6 13.554688 6 11.980469 C 6 10.425781 6.671875 9.019531 7.761719 8 "/>
<path style="fill:none;stroke-width:1.776;stroke-linecap:butt;stroke-linejoin:miter;stroke:rgb(95.686275%,53.725493%,31.764707%);stroke-opacity:1;stroke-miterlimit:4;" d="M 13.65625 10.449219 C 14.550781 11.109375 15 11.4375 15 12 C 15 12.5625 14.550781 12.890625 13.65625 13.550781 C 13.410156 13.730469 13.164062 13.902344 12.9375 14.042969 C 12.742188 14.167969 12.515625 14.296875 12.285156 14.425781 C 11.390625 14.914062 10.945312 15.160156 10.542969 14.886719 C 10.144531 14.617188 10.105469 14.050781 10.035156 12.917969 C 10.011719 12.597656 10 12.28125 10 12 C 10 11.71875 10.011719 11.402344 10.035156 11.082031 C 10.105469 9.949219 10.144531 9.382812 10.542969 9.113281 C 10.945312 8.839844 11.390625 9.085938 12.285156 9.574219 C 12.515625 9.703125 12.742188 9.832031 12.9375 9.957031 C 13.164062 10.097656 13.410156 10.269531 13.65625 10.449219 Z M 13.65625 10.449219 "/>
</g>
</svg>
