<?xml version="1.0" encoding="UTF-8"?>
<svg xmlns="http://www.w3.org/2000/svg" xmlns:xlink="http://www.w3.org/1999/xlink" width="24px" height="24px" viewBox="0 0 24 24" version="1.1">
<g id="surface1">
<path style="fill-rule:nonzero;fill:rgb(95.686275%,53.725493%,31.764707%);fill-opacity:1;stroke-width:1;stroke-linecap:butt;stroke-linejoin:miter;stroke:rgb(95.686275%,53.725493%,31.764707%);stroke-opacity:1;stroke-miterlimit:4;" d="M 344.833333 687.166667 C 371.5 744 411.5 798.333333 463.833333 848.833333 C 354.166667 832.333333 263.166667 765.5 213.666667 673.166667 Z M 461.833333 178 C 355.166667 194.666667 266.166667 259.166667 216.5 348.333333 L 344.833333 335.666667 C 371.333333 280 410.666667 227.166667 461.833333 178 Z M 502 337.333333 L 503.833333 174.166667 L 503.5 174.166667 C 446 224.333333 402.333333 278.5 373.166667 336 Z M 224.833333 388 L 201.166667 387.833333 L 177.666667 387.5 L 175.833333 557 L 81 386.5 L 28 386 L 25.5 627.166667 L 49 627.5 L 72.5 627.666667 L 74.333333 453.833333 L 172 628.833333 L 222.333333 629.333333 Z M 450.333333 433.333333 L 450.666667 411.833333 L 450.833333 390.5 L 273.166667 388.666667 L 270.666667 629.833333 L 453.833333 631.833333 L 454 610.333333 L 454.166667 589 L 321.5 587.5 L 322.166667 524.666667 L 440.166667 525.833333 L 440.333333 505.166667 L 440.666667 484.333333 L 322.666667 483.166667 L 323.166667 432 Z M 691.166667 568.333333 L 658.166667 392.833333 L 604.5 392.166667 L 568 568.333333 L 529.666667 391.333333 L 477.166667 390.833333 L 541.833333 632.833333 L 565.666667 633 L 589.666667 633.333333 L 629.666667 443.666667 L 666.333333 634.166667 L 690.333333 634.5 L 714.333333 634.666667 L 784 394.166667 L 733 393.5 Z M 529.666667 174.5 L 529.333333 174.5 L 527.666667 337.666667 L 656.5 339 C 628.5 281 586 225.833333 529.666667 174.5 Z M 805 340.666667 C 751.333333 251.166667 659.833333 189 553.166667 176.333333 C 621.5 229.333333 659.666667 283.166667 684.833333 339.333333 Z M 555 849.833333 C 664.333333 835.833333 756.333333 771.333333 807.833333 680.833333 L 677.333333 690.833333 C 649.333333 747 608.166667 800.333333 555 849.833333 Z M 648.666667 690.5 L 523.833333 689.166667 L 522.166667 845 C 577.166667 797 619.666667 745 648.666667 690.5 Z M 981.333333 521.166667 C 969.666667 510.666667 946.333333 501.333333 911.333333 493.166667 C 887.166667 487.5 871.333333 482.666667 864 478.666667 C 856.5 474.666667 852.833333 469 852.833333 461.666667 C 853 451.833333 856.666667 443.833333 864 438.166667 C 871.166667 432.833333 881.166667 430.166667 894 430.333333 C 908.833333 430.5 920.666667 434 929.833333 440.666667 C 939 447.5 943.833333 456.666667 944.666667 468.166667 L 993.666667 468.666667 C 992.166667 444.5 982.833333 425.333333 966 410.833333 C 949.333333 396.5 927.333333 389.166667 900.333333 388.833333 C 871.5 388.5 848.5 395.166667 831.333333 408.5 C 814.333333 422.166667 805.666667 440.833333 805.333333 464.166667 C 805.166667 485 811.5 500.5 824 510.5 C 836.833333 520.5 862.333333 530 900.5 538.833333 C 921.333333 543.666667 934.833333 548.5 941.166667 552.666667 C 947.5 557 950.666667 563.666667 950.666667 572.833333 C 950.5 582 945.833333 589.166667 936.833333 594.166667 C 927.666667 599.333333 915.166667 601.833333 899 601.666667 C 883.5 601.333333 871.166667 597.833333 862.666667 590.833333 C 853.833333 584 849.333333 574.166667 849 561.166667 L 800.5 560.666667 C 801.333333 586.833333 810.333333 606.833333 827.333333 621.166667 C 844.333333 635.666667 868.166667 642.833333 898.666667 643.166667 C 929.166667 643.5 953.166667 637.166667 971.166667 624 C 989.166667 610.833333 998.333333 593 998.5 570.333333 C 998.833333 547.833333 993.166667 531.333333 981.333333 521.166667 Z M 496.666667 844.5 L 498.333333 688.833333 L 373.333333 687.5 C 401.333333 742.666667 442.666667 795.5 496.666667 844.5 Z M 496.666667 844.5 " transform="matrix(0.0234375,0,0,0.0234375,0,0)"/>
</g>
</svg>
